<svg width="135" height="40" viewBox="0 0 135 40" fill="none" xmlns="http://www.w3.org/2000/svg">
<g clip-path="url(#clip0_3953_2793)">
<path d="M124.278 0H11.1026C10.69 0 10.2824 0 9.87098 0.00213C9.52656 0.00413 9.18489 0.00994 8.83716 0.01483C8.08174 0.0227318 7.3281 0.0818063 6.58278 0.19154C5.8385 0.303663 5.11755 0.515046 4.44429 0.81854C3.77185 1.1246 3.15743 1.5223 2.6233 1.9972C2.08638 2.47077 1.63881 3.01815 1.29781 3.61829C0.955863 4.21724 0.718758 4.85907 0.594681 5.52161C0.469425 6.18332 0.402023 6.85265 0.393081 7.52361C0.382641 7.83021 0.381539 8.13783 0.376038 8.44447V31.5587C0.381539 31.8692 0.382641 32.17 0.393081 32.4806C0.402026 33.1516 0.469428 33.8209 0.594681 34.4825C0.718416 35.1455 0.955534 35.7877 1.29781 36.3868C1.63865 36.985 2.08629 37.5302 2.6233 38.0011C3.1554 38.4781 3.77022 38.8761 4.44429 39.1798C5.11754 39.4841 5.83842 39.6968 6.58278 39.8106C7.32822 39.9195 8.08179 39.9786 8.83716 39.9874C9.18489 39.9942 9.52656 39.9981 9.87098 39.9981C10.2824 40.0001 10.69 40.0001 11.1026 40.0001H124.278C124.682 40.0001 125.093 40.0001 125.497 39.9981C125.84 39.9981 126.192 39.9942 126.534 39.9874C127.288 39.9791 128.04 39.92 128.784 39.8106C129.531 39.696 130.255 39.4834 130.931 39.1798C131.604 38.8759 132.219 38.478 132.75 38.0011C133.286 37.5284 133.735 36.9836 134.08 36.3868C134.419 35.7872 134.654 35.1451 134.776 34.4825C134.902 33.8208 134.971 33.1516 134.985 32.4806C134.989 32.17 134.989 31.8692 134.989 31.5587C134.998 31.1954 134.998 30.8341 134.998 30.4649V9.53626C134.998 9.17005 134.998 8.80677 134.989 8.44447C134.989 8.13783 134.989 7.83021 134.985 7.52357C134.971 6.85255 134.902 6.18337 134.776 5.52157C134.654 4.85941 134.419 4.21763 134.08 3.61825C133.385 2.41533 132.284 1.43616 130.931 0.81845C130.255 0.515697 129.531 0.30437 128.784 0.19145C128.041 0.0812328 127.288 0.0221378 126.534 0.01469C126.192 0.00981 125.84 0.00395 125.497 0.002C125.093 0 124.682 0 124.278 0Z" fill="#A6A6A6"/>
<path d="M9.87554 39.125C9.53277 39.125 9.19829 39.1211 8.85821 39.1143C8.15372 39.1061 7.45087 39.0516 6.75543 38.9512C6.10697 38.8519 5.47878 38.6673 4.8916 38.4033C4.30979 38.1415 3.77914 37.7983 3.31997 37.3867C2.85415 36.98 2.46634 36.5082 2.1719 35.9902C1.87421 35.4688 1.66819 34.9099 1.56102 34.333C1.44529 33.7131 1.38267 33.0863 1.37371 32.458C1.36658 32.2471 1.35724 31.5449 1.35724 31.5449V8.44434C1.35724 8.44434 1.36718 7.75293 1.37377 7.5498C1.38234 6.92248 1.4446 6.29665 1.55999 5.67773C1.66735 5.09925 1.87353 4.53875 2.17138 4.01563C2.46474 3.49794 2.8504 3.02586 3.31341 2.61768C3.7759 2.20562 4.30825 1.8606 4.89104 1.59521C5.47688 1.33209 6.10388 1.14873 6.75103 1.05127C7.44875 0.949836 8.15404 0.894996 8.86098 0.88721L9.87609 0.875H125.491L126.518 0.8877C127.218 0.895099 127.917 0.94945 128.609 1.05029C129.262 1.14898 129.896 1.33362 130.488 1.59814C131.656 2.13299 132.606 2.97916 133.205 4.01807C133.498 4.53758 133.701 5.09351 133.807 5.66699C133.924 6.29099 133.99 6.92174 134.003 7.5542C134.006 7.8374 134.006 8.1416 134.006 8.44434C134.015 8.81934 134.015 9.17627 134.015 9.53613V30.4648C134.015 30.8281 134.015 31.1826 134.006 31.54C134.006 31.8652 134.006 32.1631 134.002 32.4697C133.989 33.0909 133.924 33.7104 133.81 34.3232C133.705 34.9043 133.5 35.4675 133.202 35.9932C132.906 36.5056 132.52 36.9733 132.059 37.3789C131.6 37.7927 131.068 38.1379 130.485 38.4014C129.894 38.6674 129.262 38.8527 128.609 38.9512C127.913 39.0522 127.21 39.1067 126.506 39.1143C126.176 39.1211 125.831 39.125 125.496 39.125L124.277 39.127L9.87554 39.125Z" fill="black"/>
<path d="M25.5225 20.3008C25.5447 18.6043 26.4489 17.0373 27.9183 16.1488C26.9871 14.8407 25.4833 14.041 23.8606 13.9911C22.1534 13.8148 20.4983 14.9959 19.6283 14.9959C18.7415 14.9959 17.4021 14.0086 15.9597 14.0378C14.0619 14.0981 12.3355 15.1337 11.4122 16.7656C9.44598 20.1141 10.9126 25.0351 12.7961 27.7417C13.7385 29.0671 14.8398 30.5475 16.2809 30.495C17.691 30.4375 18.2177 29.6105 19.9199 29.6105C21.6063 29.6105 22.1005 30.495 23.5708 30.4616C25.084 30.4375 26.0373 29.1304 26.9466 27.7925C27.6237 26.8481 28.1447 25.8044 28.4903 24.7C26.6931 23.9523 25.5245 22.2202 25.5225 20.3008Z" fill="white"/>
<path d="M22.746 12.2108C23.571 11.2366 23.9775 9.98445 23.8791 8.72021C22.6186 8.85044 21.4542 9.44299 20.618 10.3798C19.7923 11.3041 19.374 12.5134 19.4553 13.7412C20.7327 13.7542 21.9455 13.1901 22.746 12.2108Z" fill="white"/>
<path d="M43.0062 27.1397H38.194L37.0383 30.4961H35L39.5581 18.0781H41.6758L46.234 30.4961H44.1609L43.0062 27.1397ZM38.6924 25.5908H42.5069L40.6265 20.1436H40.5738L38.6924 25.5908Z" fill="white"/>
<path d="M56.4205 25.9699C56.4205 28.7834 54.8895 30.591 52.5792 30.591C51.385 30.6525 50.2601 30.0373 49.6831 29.007H49.6394V33.4914H47.75V21.4426H49.5788V22.9485H49.6136C50.2163 21.9247 51.3424 21.3097 52.5445 21.3479C54.8806 21.3479 56.4205 23.1643 56.4205 25.9699ZM54.4785 25.9699C54.4785 24.1369 53.5154 22.9319 52.046 22.9319C50.6025 22.9319 49.6315 24.1623 49.6315 25.9699C49.6315 27.7942 50.6025 29.0158 52.046 29.0158C53.5155 29.0158 54.4785 27.8196 54.4785 25.9699Z" fill="white"/>
<path d="M66.5514 25.9699C66.5514 28.7834 65.0204 30.591 62.7101 30.591C61.5159 30.6525 60.391 30.0372 59.814 29.007H59.7702V33.4914H57.8809V21.4426H59.7097V22.9484H59.7444C60.3471 21.9247 61.4732 21.3097 62.6753 21.3479C65.0115 21.3479 66.5514 23.1643 66.5514 25.9699ZM64.6094 25.9699C64.6094 24.1369 63.6463 22.9318 62.1769 22.9318C60.7333 22.9318 59.7623 24.1623 59.7623 25.9699C59.7623 27.7942 60.7333 29.0158 62.1769 29.0158C63.6463 29.0158 64.6094 27.8195 64.6094 25.9699Z" fill="white"/>
<path d="M73.2466 27.0362C73.3866 28.2676 74.6028 29.0762 76.2648 29.0762C77.8573 29.0762 79.0031 28.2676 79.0031 27.1572C79.0031 26.1934 78.312 25.6162 76.6758 25.2207L75.0397 24.833C72.7214 24.2822 71.6451 23.2158 71.6451 21.4854C71.6451 19.3428 73.5434 17.8711 76.239 17.8711C78.9067 17.8711 80.7356 19.3428 80.7971 21.4854H78.8899C78.7757 20.2461 77.7342 19.4981 76.2122 19.4981C74.6901 19.4981 73.6487 20.2549 73.6487 21.3565C73.6487 22.2344 74.3139 22.751 75.9411 23.1465L77.3321 23.4824C79.9224 24.0849 80.9986 25.1084 80.9986 26.9248C80.9986 29.248 79.1172 30.7031 76.1248 30.7031C73.325 30.7031 71.4346 29.2822 71.3125 27.0361L73.2466 27.0362Z" fill="white"/>
<path d="M85.0765 19.2998V21.4424H86.8269V22.9141H85.0765V27.9053C85.0765 28.6807 85.427 29.042 86.1964 29.042C86.4042 29.0384 86.6117 29.0241 86.8179 28.999V30.4619C86.472 30.5255 86.1204 30.5543 85.7685 30.5478C83.9049 30.5478 83.1782 29.8593 83.1782 28.1035V22.9141H81.8398V21.4424H83.1782V19.2998H85.0765Z" fill="white"/>
<path d="M87.8398 25.9702C87.8398 23.1216 89.5455 21.3315 92.2054 21.3315C94.8741 21.3315 96.5719 23.1215 96.5719 25.9702C96.5719 28.8267 94.883 30.6089 92.2054 30.6089C89.5286 30.6089 87.8398 28.8267 87.8398 25.9702ZM94.6467 25.9702C94.6467 24.0161 93.7363 22.8628 92.2053 22.8628C90.6744 22.8628 89.765 24.0249 89.765 25.9702C89.765 27.9321 90.6744 29.0767 92.2053 29.0767C93.7363 29.0767 94.6467 27.9321 94.6467 25.9702Z" fill="white"/>
<path d="M98.1289 21.4425H99.9309V22.9835H99.9746C100.226 21.9915 101.15 21.3088 102.189 21.3478C102.406 21.347 102.624 21.3703 102.836 21.4171V23.1554C102.561 23.0728 102.274 23.0349 101.987 23.0431C101.432 23.0209 100.894 23.2387 100.516 23.6391C100.137 24.0396 99.9554 24.5828 100.018 25.1261V30.4962H98.1289V21.4425Z" fill="white"/>
<path d="M111.547 27.8369C111.293 29.4805 109.666 30.6084 107.584 30.6084C104.906 30.6084 103.244 28.8437 103.244 26.0127C103.244 23.1729 104.915 21.3311 107.504 21.3311C110.051 21.3311 111.652 23.0518 111.652 25.7969V26.4336H105.151V26.5459C105.091 27.2199 105.327 27.8871 105.801 28.3778C106.275 28.8684 106.94 29.1352 107.628 29.1103C108.544 29.1948 109.409 28.677 109.753 27.8369L111.547 27.8369ZM105.16 25.1348H109.762C109.796 24.5291 109.572 23.9368 109.144 23.5006C108.715 23.0644 108.121 22.8239 107.504 22.8369C106.883 22.8333 106.286 23.0739 105.846 23.5054C105.405 23.9369 105.159 24.5235 105.16 25.1348Z" fill="white"/>
<path d="M39.4247 8.73139C40.3123 8.67477 41.1817 8.97494 41.7935 9.54926C42.4054 10.1236 42.6952 10.9115 42.5833 11.6962C42.5833 13.6025 41.4243 14.6982 39.4247 14.6982H37.0001V8.73139H39.4247ZM38.0427 13.8544H39.3083C39.9426 13.8881 40.5602 13.6659 40.9896 13.2496C41.4191 12.8333 41.6147 12.2672 41.522 11.7084C41.6079 11.1519 41.4095 10.5904 40.9812 10.1775C40.5528 9.76461 39.9392 9.54348 39.3083 9.5746H38.0427V13.8544Z" fill="white"/>
<path d="M43.761 12.4443C43.6742 11.6372 44.1096 10.8561 44.8846 10.4285C45.6597 10.001 46.6404 10.001 47.4154 10.4285C48.1905 10.8561 48.6259 11.6372 48.539 12.4443C48.6275 13.2523 48.1925 14.0349 47.4168 14.4633C46.641 14.8918 45.659 14.8918 44.8832 14.4633C44.1075 14.0349 43.6725 13.2523 43.761 12.4443ZM47.5107 12.4443C47.5107 11.4682 47.0174 10.8974 46.1517 10.8974C45.2826 10.8974 44.7938 11.4682 44.7938 12.4443C44.7938 13.4282 45.2827 13.9946 46.1517 13.9946C47.0174 13.9946 47.5107 13.4243 47.5107 12.4443Z" fill="white"/>
<path d="M54.8902 14.6978H53.8531L52.8061 11.3813H52.727L51.6844 14.6978H50.6572L49.2608 10.1948H50.2748L51.1823 13.6308H51.257L52.2985 10.1948H53.2576L54.2991 13.6308H54.3782L55.2813 10.1948H56.281L54.8902 14.6978Z" fill="white"/>
<path d="M57.4562 10.1949H58.4186V10.9102H58.4934C58.7532 10.3836 59.3602 10.0614 60.0051 10.108C60.5044 10.0746 60.9936 10.2449 61.3347 10.5707C61.6758 10.8965 61.8318 11.3425 61.7585 11.7828V14.6978H60.7587V12.0059C60.7587 11.2823 60.405 10.9224 59.6656 10.9224C59.3269 10.9084 58.9983 11.0266 58.7658 11.2459C58.5333 11.4652 58.4201 11.7639 58.456 12.0635V14.6978H57.4562V10.1949Z" fill="white"/>
<path d="M63.35 8.43701H64.3497V14.6978H63.35V8.43701Z" fill="white"/>
<path d="M65.7408 12.4444C65.654 11.6372 66.0895 10.8561 66.8646 10.4286C67.6397 10.001 68.6204 10.001 69.3955 10.4286C70.1706 10.8561 70.6061 11.6372 70.5193 12.4444C70.6077 13.2524 70.1726 14.035 69.3969 14.4634C68.6211 14.8918 67.639 14.8918 66.8632 14.4634C66.0875 14.035 65.6524 13.2524 65.7408 12.4444ZM69.4904 12.4444C69.4904 11.4683 68.9971 10.8975 68.1314 10.8975C67.2624 10.8975 66.7735 11.4683 66.7735 12.4444C66.7735 13.4283 67.2624 13.9947 68.1314 13.9947C68.9971 13.9947 69.4904 13.4244 69.4904 12.4444Z" fill="white"/>
<path d="M71.5713 13.4243C71.5713 12.6138 72.2502 12.1465 73.4554 12.0801L74.8276 12.0098V11.6211C74.8276 11.1455 74.4739 10.877 73.7905 10.877C73.2324 10.877 72.8457 11.0591 72.7347 11.3774H71.7668C71.869 10.604 72.6875 10.1079 73.8367 10.1079C75.1067 10.1079 75.823 10.6699 75.823 11.6211V14.6978H74.8606V14.0649H74.7815C74.4546 14.5271 73.8733 14.7972 73.2599 14.7719C72.8298 14.8117 72.4009 14.6879 72.0792 14.4311C71.7575 14.1744 71.573 13.8086 71.5713 13.4243ZM74.8276 13.0395V12.6631L73.5906 12.7334C72.8929 12.7749 72.5765 12.9858 72.5765 13.3828C72.5765 13.7881 72.972 14.0239 73.5159 14.0239C73.8379 14.0529 74.1593 13.9645 74.4065 13.7789C74.6538 13.5933 74.8058 13.3265 74.8276 13.0395Z" fill="white"/>
<path d="M77.1365 12.4444C77.1365 11.0215 77.9594 10.1201 79.2393 10.1201C79.8856 10.0937 80.4909 10.4015 80.7928 10.9101H80.8675V8.43701H81.8672V14.6978H80.9092V13.9863H80.8301C80.5054 14.4907 79.8927 14.7934 79.2393 14.772C77.9506 14.772 77.1365 13.8706 77.1365 12.4444ZM78.1693 12.4444C78.1693 13.3994 78.6758 13.9741 79.5228 13.9741C80.3654 13.9741 80.8862 13.3911 80.8862 12.4483C80.8862 11.5098 80.36 10.9185 79.5228 10.9185C78.6812 10.9185 78.1692 11.4971 78.1692 12.4444H78.1693Z" fill="white"/>
<path d="M86.0042 12.4444C86.0042 11.0215 86.827 10.1201 88.1069 10.1201C88.7532 10.0937 89.3585 10.4015 89.6604 10.9101H89.7351V8.43701H90.7349V14.6978H89.7769V13.9863H89.6977C89.3731 14.4907 88.7603 14.7934 88.1069 14.772C86.8182 14.772 86.0042 13.8706 86.0042 12.4444ZM87.0369 12.4444C87.0369 13.3994 87.5434 13.9741 88.3904 13.9741C89.233 13.9741 89.7538 13.3911 89.7538 12.4483C89.7538 11.5098 89.2276 10.9185 88.3904 10.9185C87.5488 10.9185 87.0369 11.4971 87.0369 12.4444Z" fill="white"/>
<path d="M92.2448 8.86337C92.229 8.62786 92.3765 8.40762 92.6169 8.30766C92.8573 8.2077 93.142 8.24824 93.3353 8.40996C93.5285 8.57168 93.5912 8.82184 93.4935 9.04119C93.3957 9.26054 93.1573 9.40467 92.8919 9.40487C92.7244 9.41246 92.5606 9.35897 92.4385 9.25676C92.3163 9.15455 92.2464 9.01248 92.2448 8.86337ZM92.3931 10.1949H93.3896V14.6978H92.3931V10.1949Z" fill="white"/>
</g>
<defs>
<clipPath id="clip0_3953_2793">
<rect width="135" height="40" fill="white"/>
</clipPath>
</defs>
</svg>
