<?xml version="1.0" encoding="utf-8"?>
<!-- Generator: Adobe Illustrator 26.5.0, SVG Export Plug-In . SVG Version: 6.00 Build 0)  -->
<svg version="1.1" id="Layer_1" xmlns="http://www.w3.org/2000/svg" xmlns:xlink="http://www.w3.org/1999/xlink" x="0px" y="0px"
	 viewBox="0 0 200 200" style="enable-background:new 0 0 200 200;" xml:space="preserve">
<rect x="13" y="13" shape-rendering="optimizeSpeed" width="6" height="6"/>
<rect x="19" y="13" shape-rendering="optimizeSpeed" width="6" height="6"/>
<rect x="25" y="13" shape-rendering="optimizeSpeed" width="6" height="6"/>
<rect x="31" y="13" shape-rendering="optimizeSpeed" width="6" height="6"/>
<rect x="37" y="13" shape-rendering="optimizeSpeed" width="6" height="6"/>
<rect x="43" y="13" shape-rendering="optimizeSpeed" width="6" height="6"/>
<rect x="49" y="13" shape-rendering="optimizeSpeed" width="6" height="6"/>
<rect x="67" y="13" shape-rendering="optimizeSpeed" width="6" height="6"/>
<rect x="103" y="13" shape-rendering="optimizeSpeed" width="6" height="6"/>
<rect x="109" y="13" shape-rendering="optimizeSpeed" width="6" height="6"/>
<rect x="115" y="13" shape-rendering="optimizeSpeed" width="6" height="6"/>
<rect x="121" y="13" shape-rendering="optimizeSpeed" width="6" height="6"/>
<rect x="127" y="13" shape-rendering="optimizeSpeed" width="6" height="6"/>
<rect x="133" y="13" shape-rendering="optimizeSpeed" width="6" height="6"/>
<rect x="145" y="13" shape-rendering="optimizeSpeed" width="6" height="6"/>
<rect x="151" y="13" shape-rendering="optimizeSpeed" width="6" height="6"/>
<rect x="157" y="13" shape-rendering="optimizeSpeed" width="6" height="6"/>
<rect x="163" y="13" shape-rendering="optimizeSpeed" width="6" height="6"/>
<rect x="169" y="13" shape-rendering="optimizeSpeed" width="6" height="6"/>
<rect x="175" y="13" shape-rendering="optimizeSpeed" width="6" height="6"/>
<rect x="181" y="13" shape-rendering="optimizeSpeed" width="6" height="6"/>
<rect x="13" y="19" shape-rendering="optimizeSpeed" width="6" height="6"/>
<rect x="49" y="19" shape-rendering="optimizeSpeed" width="6" height="6"/>
<rect x="61" y="19" shape-rendering="optimizeSpeed" width="6" height="6"/>
<rect x="67" y="19" shape-rendering="optimizeSpeed" width="6" height="6"/>
<rect x="79" y="19" shape-rendering="optimizeSpeed" width="6" height="6"/>
<rect x="85" y="19" shape-rendering="optimizeSpeed" width="6" height="6"/>
<rect x="145" y="19" shape-rendering="optimizeSpeed" width="6" height="6"/>
<rect x="181" y="19" shape-rendering="optimizeSpeed" width="6" height="6"/>
<rect x="13" y="25" shape-rendering="optimizeSpeed" width="6" height="6"/>
<rect x="25" y="25" shape-rendering="optimizeSpeed" width="6" height="6"/>
<rect x="31" y="25" shape-rendering="optimizeSpeed" width="6" height="6"/>
<rect x="37" y="25" shape-rendering="optimizeSpeed" width="6" height="6"/>
<rect x="49" y="25" shape-rendering="optimizeSpeed" width="6" height="6"/>
<rect x="67" y="25" shape-rendering="optimizeSpeed" width="6" height="6"/>
<rect x="73" y="25" shape-rendering="optimizeSpeed" width="6" height="6"/>
<rect x="79" y="25" shape-rendering="optimizeSpeed" width="6" height="6"/>
<rect x="97" y="25" shape-rendering="optimizeSpeed" width="6" height="6"/>
<rect x="109" y="25" shape-rendering="optimizeSpeed" width="6" height="6"/>
<rect x="121" y="25" shape-rendering="optimizeSpeed" width="6" height="6"/>
<rect x="127" y="25" shape-rendering="optimizeSpeed" width="6" height="6"/>
<rect x="133" y="25" shape-rendering="optimizeSpeed" width="6" height="6"/>
<rect x="145" y="25" shape-rendering="optimizeSpeed" width="6" height="6"/>
<rect x="157" y="25" shape-rendering="optimizeSpeed" width="6" height="6"/>
<rect x="163" y="25" shape-rendering="optimizeSpeed" width="6" height="6"/>
<rect x="169" y="25" shape-rendering="optimizeSpeed" width="6" height="6"/>
<rect x="181" y="25" shape-rendering="optimizeSpeed" width="6" height="6"/>
<rect x="13" y="31" shape-rendering="optimizeSpeed" width="6" height="6"/>
<rect x="25" y="31" shape-rendering="optimizeSpeed" width="6" height="6"/>
<rect x="31" y="31" shape-rendering="optimizeSpeed" width="6" height="6"/>
<rect x="37" y="31" shape-rendering="optimizeSpeed" width="6" height="6"/>
<rect x="49" y="31" shape-rendering="optimizeSpeed" width="6" height="6"/>
<rect x="61" y="31" shape-rendering="optimizeSpeed" width="6" height="6"/>
<rect x="67" y="31" shape-rendering="optimizeSpeed" width="6" height="6"/>
<rect x="79" y="31" shape-rendering="optimizeSpeed" width="6" height="6"/>
<rect x="115" y="31" shape-rendering="optimizeSpeed" width="6" height="6"/>
<rect x="127" y="31" shape-rendering="optimizeSpeed" width="6" height="6"/>
<rect x="145" y="31" shape-rendering="optimizeSpeed" width="6" height="6"/>
<rect x="157" y="31" shape-rendering="optimizeSpeed" width="6" height="6"/>
<rect x="163" y="31" shape-rendering="optimizeSpeed" width="6" height="6"/>
<rect x="169" y="31" shape-rendering="optimizeSpeed" width="6" height="6"/>
<rect x="181" y="31" shape-rendering="optimizeSpeed" width="6" height="6"/>
<rect x="13" y="37" shape-rendering="optimizeSpeed" width="6" height="6"/>
<rect x="25" y="37" shape-rendering="optimizeSpeed" width="6" height="6"/>
<rect x="31" y="37" shape-rendering="optimizeSpeed" width="6" height="6"/>
<rect x="37" y="37" shape-rendering="optimizeSpeed" width="6" height="6"/>
<rect x="49" y="37" shape-rendering="optimizeSpeed" width="6" height="6"/>
<rect x="73" y="37" shape-rendering="optimizeSpeed" width="6" height="6"/>
<rect x="85" y="37" shape-rendering="optimizeSpeed" width="6" height="6"/>
<rect x="91" y="37" shape-rendering="optimizeSpeed" width="6" height="6"/>
<rect x="97" y="37" shape-rendering="optimizeSpeed" width="6" height="6"/>
<rect x="103" y="37" shape-rendering="optimizeSpeed" width="6" height="6"/>
<rect x="115" y="37" shape-rendering="optimizeSpeed" width="6" height="6"/>
<rect x="121" y="37" shape-rendering="optimizeSpeed" width="6" height="6"/>
<rect x="127" y="37" shape-rendering="optimizeSpeed" width="6" height="6"/>
<rect x="145" y="37" shape-rendering="optimizeSpeed" width="6" height="6"/>
<rect x="157" y="37" shape-rendering="optimizeSpeed" width="6" height="6"/>
<rect x="163" y="37" shape-rendering="optimizeSpeed" width="6" height="6"/>
<rect x="169" y="37" shape-rendering="optimizeSpeed" width="6" height="6"/>
<rect x="181" y="37" shape-rendering="optimizeSpeed" width="6" height="6"/>
<rect x="13" y="43" shape-rendering="optimizeSpeed" width="6" height="6"/>
<rect x="49" y="43" shape-rendering="optimizeSpeed" width="6" height="6"/>
<rect x="61" y="43" shape-rendering="optimizeSpeed" width="6" height="6"/>
<rect x="73" y="43" shape-rendering="optimizeSpeed" width="6" height="6"/>
<rect x="91" y="43" shape-rendering="optimizeSpeed" width="6" height="6"/>
<rect x="97" y="43" shape-rendering="optimizeSpeed" width="6" height="6"/>
<rect x="103" y="43" shape-rendering="optimizeSpeed" width="6" height="6"/>
<rect x="121" y="43" shape-rendering="optimizeSpeed" width="6" height="6"/>
<rect x="133" y="43" shape-rendering="optimizeSpeed" width="6" height="6"/>
<rect x="145" y="43" shape-rendering="optimizeSpeed" width="6" height="6"/>
<rect x="181" y="43" shape-rendering="optimizeSpeed" width="6" height="6"/>
<rect x="13" y="49" shape-rendering="optimizeSpeed" width="6" height="6"/>
<rect x="19" y="49" shape-rendering="optimizeSpeed" width="6" height="6"/>
<rect x="25" y="49" shape-rendering="optimizeSpeed" width="6" height="6"/>
<rect x="31" y="49" shape-rendering="optimizeSpeed" width="6" height="6"/>
<rect x="37" y="49" shape-rendering="optimizeSpeed" width="6" height="6"/>
<rect x="43" y="49" shape-rendering="optimizeSpeed" width="6" height="6"/>
<rect x="49" y="49" shape-rendering="optimizeSpeed" width="6" height="6"/>
<rect x="61" y="49" shape-rendering="optimizeSpeed" width="6" height="6"/>
<rect x="73" y="49" shape-rendering="optimizeSpeed" width="6" height="6"/>
<rect x="85" y="49" shape-rendering="optimizeSpeed" width="6" height="6"/>
<rect x="97" y="49" shape-rendering="optimizeSpeed" width="6" height="6"/>
<rect x="109" y="49" shape-rendering="optimizeSpeed" width="6" height="6"/>
<rect x="121" y="49" shape-rendering="optimizeSpeed" width="6" height="6"/>
<rect x="133" y="49" shape-rendering="optimizeSpeed" width="6" height="6"/>
<rect x="145" y="49" shape-rendering="optimizeSpeed" width="6" height="6"/>
<rect x="151" y="49" shape-rendering="optimizeSpeed" width="6" height="6"/>
<rect x="157" y="49" shape-rendering="optimizeSpeed" width="6" height="6"/>
<rect x="163" y="49" shape-rendering="optimizeSpeed" width="6" height="6"/>
<rect x="169" y="49" shape-rendering="optimizeSpeed" width="6" height="6"/>
<rect x="175" y="49" shape-rendering="optimizeSpeed" width="6" height="6"/>
<rect x="181" y="49" shape-rendering="optimizeSpeed" width="6" height="6"/>
<rect x="85" y="55" shape-rendering="optimizeSpeed" width="6" height="6"/>
<rect x="91" y="55" shape-rendering="optimizeSpeed" width="6" height="6"/>
<rect x="103" y="55" shape-rendering="optimizeSpeed" width="6" height="6"/>
<rect x="109" y="55" shape-rendering="optimizeSpeed" width="6" height="6"/>
<rect x="133" y="55" shape-rendering="optimizeSpeed" width="6" height="6"/>
<rect x="13" y="61" shape-rendering="optimizeSpeed" width="6" height="6"/>
<rect x="19" y="61" shape-rendering="optimizeSpeed" width="6" height="6"/>
<rect x="25" y="61" shape-rendering="optimizeSpeed" width="6" height="6"/>
<rect x="31" y="61" shape-rendering="optimizeSpeed" width="6" height="6"/>
<rect x="37" y="61" shape-rendering="optimizeSpeed" width="6" height="6"/>
<rect x="49" y="61" shape-rendering="optimizeSpeed" width="6" height="6"/>
<rect x="55" y="61" shape-rendering="optimizeSpeed" width="6" height="6"/>
<rect x="61" y="61" shape-rendering="optimizeSpeed" width="6" height="6"/>
<rect x="67" y="61" shape-rendering="optimizeSpeed" width="6" height="6"/>
<rect x="73" y="61" shape-rendering="optimizeSpeed" width="6" height="6"/>
<rect x="85" y="61" shape-rendering="optimizeSpeed" width="6" height="6"/>
<rect x="97" y="61" shape-rendering="optimizeSpeed" width="6" height="6"/>
<rect x="103" y="61" shape-rendering="optimizeSpeed" width="6" height="6"/>
<rect x="115" y="61" shape-rendering="optimizeSpeed" width="6" height="6"/>
<rect x="139" y="61" shape-rendering="optimizeSpeed" width="6" height="6"/>
<rect x="151" y="61" shape-rendering="optimizeSpeed" width="6" height="6"/>
<rect x="163" y="61" shape-rendering="optimizeSpeed" width="6" height="6"/>
<rect x="175" y="61" shape-rendering="optimizeSpeed" width="6" height="6"/>
<rect x="19" y="67" shape-rendering="optimizeSpeed" width="6" height="6"/>
<rect x="31" y="67" shape-rendering="optimizeSpeed" width="6" height="6"/>
<rect x="37" y="67" shape-rendering="optimizeSpeed" width="6" height="6"/>
<rect x="61" y="67" shape-rendering="optimizeSpeed" width="6" height="6"/>
<rect x="67" y="67" shape-rendering="optimizeSpeed" width="6" height="6"/>
<rect x="109" y="67" shape-rendering="optimizeSpeed" width="6" height="6"/>
<rect x="115" y="67" shape-rendering="optimizeSpeed" width="6" height="6"/>
<rect x="121" y="67" shape-rendering="optimizeSpeed" width="6" height="6"/>
<rect x="127" y="67" shape-rendering="optimizeSpeed" width="6" height="6"/>
<rect x="133" y="67" shape-rendering="optimizeSpeed" width="6" height="6"/>
<rect x="145" y="67" shape-rendering="optimizeSpeed" width="6" height="6"/>
<rect x="151" y="67" shape-rendering="optimizeSpeed" width="6" height="6"/>
<rect x="157" y="67" shape-rendering="optimizeSpeed" width="6" height="6"/>
<rect x="181" y="67" shape-rendering="optimizeSpeed" width="6" height="6"/>
<rect x="25" y="73" shape-rendering="optimizeSpeed" width="6" height="6"/>
<rect x="37" y="73" shape-rendering="optimizeSpeed" width="6" height="6"/>
<rect x="43" y="73" shape-rendering="optimizeSpeed" width="6" height="6"/>
<rect x="49" y="73" shape-rendering="optimizeSpeed" width="6" height="6"/>
<rect x="67" y="73" shape-rendering="optimizeSpeed" width="6" height="6"/>
<rect x="79" y="73" shape-rendering="optimizeSpeed" width="6" height="6"/>
<rect x="85" y="73" shape-rendering="optimizeSpeed" width="6" height="6"/>
<rect x="103" y="73" shape-rendering="optimizeSpeed" width="6" height="6"/>
<rect x="109" y="73" shape-rendering="optimizeSpeed" width="6" height="6"/>
<rect x="115" y="73" shape-rendering="optimizeSpeed" width="6" height="6"/>
<rect x="133" y="73" shape-rendering="optimizeSpeed" width="6" height="6"/>
<rect x="139" y="73" shape-rendering="optimizeSpeed" width="6" height="6"/>
<rect x="145" y="73" shape-rendering="optimizeSpeed" width="6" height="6"/>
<rect x="157" y="73" shape-rendering="optimizeSpeed" width="6" height="6"/>
<rect x="19" y="79" shape-rendering="optimizeSpeed" width="6" height="6"/>
<rect x="37" y="79" shape-rendering="optimizeSpeed" width="6" height="6"/>
<rect x="61" y="79" shape-rendering="optimizeSpeed" width="6" height="6"/>
<rect x="67" y="79" shape-rendering="optimizeSpeed" width="6" height="6"/>
<rect x="73" y="79" shape-rendering="optimizeSpeed" width="6" height="6"/>
<rect x="79" y="79" shape-rendering="optimizeSpeed" width="6" height="6"/>
<rect x="97" y="79" shape-rendering="optimizeSpeed" width="6" height="6"/>
<rect x="103" y="79" shape-rendering="optimizeSpeed" width="6" height="6"/>
<rect x="121" y="79" shape-rendering="optimizeSpeed" width="6" height="6"/>
<rect x="127" y="79" shape-rendering="optimizeSpeed" width="6" height="6"/>
<rect x="133" y="79" shape-rendering="optimizeSpeed" width="6" height="6"/>
<rect x="139" y="79" shape-rendering="optimizeSpeed" width="6" height="6"/>
<rect x="151" y="79" shape-rendering="optimizeSpeed" width="6" height="6"/>
<rect x="157" y="79" shape-rendering="optimizeSpeed" width="6" height="6"/>
<rect x="163" y="79" shape-rendering="optimizeSpeed" width="6" height="6"/>
<rect x="175" y="79" shape-rendering="optimizeSpeed" width="6" height="6"/>
<rect x="13" y="85" shape-rendering="optimizeSpeed" width="6" height="6"/>
<rect x="37" y="85" shape-rendering="optimizeSpeed" width="6" height="6"/>
<rect x="49" y="85" shape-rendering="optimizeSpeed" width="6" height="6"/>
<rect x="55" y="85" shape-rendering="optimizeSpeed" width="6" height="6"/>
<rect x="67" y="85" shape-rendering="optimizeSpeed" width="6" height="6"/>
<rect x="79" y="85" shape-rendering="optimizeSpeed" width="6" height="6"/>
<rect x="103" y="85" shape-rendering="optimizeSpeed" width="6" height="6"/>
<rect x="115" y="85" shape-rendering="optimizeSpeed" width="6" height="6"/>
<rect x="163" y="85" shape-rendering="optimizeSpeed" width="6" height="6"/>
<rect x="169" y="85" shape-rendering="optimizeSpeed" width="6" height="6"/>
<rect x="13" y="91" shape-rendering="optimizeSpeed" width="6" height="6"/>
<rect x="19" y="91" shape-rendering="optimizeSpeed" width="6" height="6"/>
<rect x="43" y="91" shape-rendering="optimizeSpeed" width="6" height="6"/>
<rect x="55" y="91" shape-rendering="optimizeSpeed" width="6" height="6"/>
<rect x="61" y="91" shape-rendering="optimizeSpeed" width="6" height="6"/>
<rect x="73" y="91" shape-rendering="optimizeSpeed" width="6" height="6"/>
<rect x="85" y="91" shape-rendering="optimizeSpeed" width="6" height="6"/>
<rect x="91" y="91" shape-rendering="optimizeSpeed" width="6" height="6"/>
<rect x="97" y="91" shape-rendering="optimizeSpeed" width="6" height="6"/>
<rect x="109" y="91" shape-rendering="optimizeSpeed" width="6" height="6"/>
<rect x="115" y="91" shape-rendering="optimizeSpeed" width="6" height="6"/>
<rect x="121" y="91" shape-rendering="optimizeSpeed" width="6" height="6"/>
<rect x="127" y="91" shape-rendering="optimizeSpeed" width="6" height="6"/>
<rect x="133" y="91" shape-rendering="optimizeSpeed" width="6" height="6"/>
<rect x="139" y="91" shape-rendering="optimizeSpeed" width="6" height="6"/>
<rect x="145" y="91" shape-rendering="optimizeSpeed" width="6" height="6"/>
<rect x="151" y="91" shape-rendering="optimizeSpeed" width="6" height="6"/>
<rect x="157" y="91" shape-rendering="optimizeSpeed" width="6" height="6"/>
<rect x="181" y="91" shape-rendering="optimizeSpeed" width="6" height="6"/>
<rect x="13" y="97" shape-rendering="optimizeSpeed" width="6" height="6"/>
<rect x="25" y="97" shape-rendering="optimizeSpeed" width="6" height="6"/>
<rect x="37" y="97" shape-rendering="optimizeSpeed" width="6" height="6"/>
<rect x="43" y="97" shape-rendering="optimizeSpeed" width="6" height="6"/>
<rect x="49" y="97" shape-rendering="optimizeSpeed" width="6" height="6"/>
<rect x="91" y="97" shape-rendering="optimizeSpeed" width="6" height="6"/>
<rect x="97" y="97" shape-rendering="optimizeSpeed" width="6" height="6"/>
<rect x="103" y="97" shape-rendering="optimizeSpeed" width="6" height="6"/>
<rect x="109" y="97" shape-rendering="optimizeSpeed" width="6" height="6"/>
<rect x="115" y="97" shape-rendering="optimizeSpeed" width="6" height="6"/>
<rect x="121" y="97" shape-rendering="optimizeSpeed" width="6" height="6"/>
<rect x="133" y="97" shape-rendering="optimizeSpeed" width="6" height="6"/>
<rect x="139" y="97" shape-rendering="optimizeSpeed" width="6" height="6"/>
<rect x="163" y="97" shape-rendering="optimizeSpeed" width="6" height="6"/>
<rect x="169" y="97" shape-rendering="optimizeSpeed" width="6" height="6"/>
<rect x="19" y="103" shape-rendering="optimizeSpeed" width="6" height="6"/>
<rect x="25" y="103" shape-rendering="optimizeSpeed" width="6" height="6"/>
<rect x="37" y="103" shape-rendering="optimizeSpeed" width="6" height="6"/>
<rect x="43" y="103" shape-rendering="optimizeSpeed" width="6" height="6"/>
<rect x="55" y="103" shape-rendering="optimizeSpeed" width="6" height="6"/>
<rect x="73" y="103" shape-rendering="optimizeSpeed" width="6" height="6"/>
<rect x="85" y="103" shape-rendering="optimizeSpeed" width="6" height="6"/>
<rect x="91" y="103" shape-rendering="optimizeSpeed" width="6" height="6"/>
<rect x="109" y="103" shape-rendering="optimizeSpeed" width="6" height="6"/>
<rect x="151" y="103" shape-rendering="optimizeSpeed" width="6" height="6"/>
<rect x="175" y="103" shape-rendering="optimizeSpeed" width="6" height="6"/>
<rect x="13" y="109" shape-rendering="optimizeSpeed" width="6" height="6"/>
<rect x="19" y="109" shape-rendering="optimizeSpeed" width="6" height="6"/>
<rect x="31" y="109" shape-rendering="optimizeSpeed" width="6" height="6"/>
<rect x="49" y="109" shape-rendering="optimizeSpeed" width="6" height="6"/>
<rect x="55" y="109" shape-rendering="optimizeSpeed" width="6" height="6"/>
<rect x="67" y="109" shape-rendering="optimizeSpeed" width="6" height="6"/>
<rect x="73" y="109" shape-rendering="optimizeSpeed" width="6" height="6"/>
<rect x="85" y="109" shape-rendering="optimizeSpeed" width="6" height="6"/>
<rect x="97" y="109" shape-rendering="optimizeSpeed" width="6" height="6"/>
<rect x="115" y="109" shape-rendering="optimizeSpeed" width="6" height="6"/>
<rect x="121" y="109" shape-rendering="optimizeSpeed" width="6" height="6"/>
<rect x="163" y="109" shape-rendering="optimizeSpeed" width="6" height="6"/>
<rect x="169" y="109" shape-rendering="optimizeSpeed" width="6" height="6"/>
<rect x="13" y="115" shape-rendering="optimizeSpeed" width="6" height="6"/>
<rect x="19" y="115" shape-rendering="optimizeSpeed" width="6" height="6"/>
<rect x="25" y="115" shape-rendering="optimizeSpeed" width="6" height="6"/>
<rect x="31" y="115" shape-rendering="optimizeSpeed" width="6" height="6"/>
<rect x="55" y="115" shape-rendering="optimizeSpeed" width="6" height="6"/>
<rect x="61" y="115" shape-rendering="optimizeSpeed" width="6" height="6"/>
<rect x="73" y="115" shape-rendering="optimizeSpeed" width="6" height="6"/>
<rect x="109" y="115" shape-rendering="optimizeSpeed" width="6" height="6"/>
<rect x="115" y="115" shape-rendering="optimizeSpeed" width="6" height="6"/>
<rect x="121" y="115" shape-rendering="optimizeSpeed" width="6" height="6"/>
<rect x="127" y="115" shape-rendering="optimizeSpeed" width="6" height="6"/>
<rect x="133" y="115" shape-rendering="optimizeSpeed" width="6" height="6"/>
<rect x="145" y="115" shape-rendering="optimizeSpeed" width="6" height="6"/>
<rect x="151" y="115" shape-rendering="optimizeSpeed" width="6" height="6"/>
<rect x="157" y="115" shape-rendering="optimizeSpeed" width="6" height="6"/>
<rect x="169" y="115" shape-rendering="optimizeSpeed" width="6" height="6"/>
<rect x="181" y="115" shape-rendering="optimizeSpeed" width="6" height="6"/>
<rect x="13" y="121" shape-rendering="optimizeSpeed" width="6" height="6"/>
<rect x="31" y="121" shape-rendering="optimizeSpeed" width="6" height="6"/>
<rect x="37" y="121" shape-rendering="optimizeSpeed" width="6" height="6"/>
<rect x="49" y="121" shape-rendering="optimizeSpeed" width="6" height="6"/>
<rect x="55" y="121" shape-rendering="optimizeSpeed" width="6" height="6"/>
<rect x="61" y="121" shape-rendering="optimizeSpeed" width="6" height="6"/>
<rect x="73" y="121" shape-rendering="optimizeSpeed" width="6" height="6"/>
<rect x="79" y="121" shape-rendering="optimizeSpeed" width="6" height="6"/>
<rect x="85" y="121" shape-rendering="optimizeSpeed" width="6" height="6"/>
<rect x="103" y="121" shape-rendering="optimizeSpeed" width="6" height="6"/>
<rect x="115" y="121" shape-rendering="optimizeSpeed" width="6" height="6"/>
<rect x="139" y="121" shape-rendering="optimizeSpeed" width="6" height="6"/>
<rect x="151" y="121" shape-rendering="optimizeSpeed" width="6" height="6"/>
<rect x="157" y="121" shape-rendering="optimizeSpeed" width="6" height="6"/>
<rect x="169" y="121" shape-rendering="optimizeSpeed" width="6" height="6"/>
<rect x="13" y="127" shape-rendering="optimizeSpeed" width="6" height="6"/>
<rect x="37" y="127" shape-rendering="optimizeSpeed" width="6" height="6"/>
<rect x="55" y="127" shape-rendering="optimizeSpeed" width="6" height="6"/>
<rect x="67" y="127" shape-rendering="optimizeSpeed" width="6" height="6"/>
<rect x="79" y="127" shape-rendering="optimizeSpeed" width="6" height="6"/>
<rect x="97" y="127" shape-rendering="optimizeSpeed" width="6" height="6"/>
<rect x="103" y="127" shape-rendering="optimizeSpeed" width="6" height="6"/>
<rect x="109" y="127" shape-rendering="optimizeSpeed" width="6" height="6"/>
<rect x="139" y="127" shape-rendering="optimizeSpeed" width="6" height="6"/>
<rect x="157" y="127" shape-rendering="optimizeSpeed" width="6" height="6"/>
<rect x="175" y="127" shape-rendering="optimizeSpeed" width="6" height="6"/>
<rect x="13" y="133" shape-rendering="optimizeSpeed" width="6" height="6"/>
<rect x="31" y="133" shape-rendering="optimizeSpeed" width="6" height="6"/>
<rect x="37" y="133" shape-rendering="optimizeSpeed" width="6" height="6"/>
<rect x="43" y="133" shape-rendering="optimizeSpeed" width="6" height="6"/>
<rect x="49" y="133" shape-rendering="optimizeSpeed" width="6" height="6"/>
<rect x="61" y="133" shape-rendering="optimizeSpeed" width="6" height="6"/>
<rect x="73" y="133" shape-rendering="optimizeSpeed" width="6" height="6"/>
<rect x="79" y="133" shape-rendering="optimizeSpeed" width="6" height="6"/>
<rect x="115" y="133" shape-rendering="optimizeSpeed" width="6" height="6"/>
<rect x="133" y="133" shape-rendering="optimizeSpeed" width="6" height="6"/>
<rect x="139" y="133" shape-rendering="optimizeSpeed" width="6" height="6"/>
<rect x="145" y="133" shape-rendering="optimizeSpeed" width="6" height="6"/>
<rect x="151" y="133" shape-rendering="optimizeSpeed" width="6" height="6"/>
<rect x="157" y="133" shape-rendering="optimizeSpeed" width="6" height="6"/>
<rect x="169" y="133" shape-rendering="optimizeSpeed" width="6" height="6"/>
<rect x="175" y="133" shape-rendering="optimizeSpeed" width="6" height="6"/>
<rect x="181" y="133" shape-rendering="optimizeSpeed" width="6" height="6"/>
<rect x="61" y="139" shape-rendering="optimizeSpeed" width="6" height="6"/>
<rect x="85" y="139" shape-rendering="optimizeSpeed" width="6" height="6"/>
<rect x="91" y="139" shape-rendering="optimizeSpeed" width="6" height="6"/>
<rect x="97" y="139" shape-rendering="optimizeSpeed" width="6" height="6"/>
<rect x="109" y="139" shape-rendering="optimizeSpeed" width="6" height="6"/>
<rect x="121" y="139" shape-rendering="optimizeSpeed" width="6" height="6"/>
<rect x="127" y="139" shape-rendering="optimizeSpeed" width="6" height="6"/>
<rect x="133" y="139" shape-rendering="optimizeSpeed" width="6" height="6"/>
<rect x="157" y="139" shape-rendering="optimizeSpeed" width="6" height="6"/>
<rect x="163" y="139" shape-rendering="optimizeSpeed" width="6" height="6"/>
<rect x="169" y="139" shape-rendering="optimizeSpeed" width="6" height="6"/>
<rect x="175" y="139" shape-rendering="optimizeSpeed" width="6" height="6"/>
<rect x="181" y="139" shape-rendering="optimizeSpeed" width="6" height="6"/>
<rect x="13" y="145" shape-rendering="optimizeSpeed" width="6" height="6"/>
<rect x="19" y="145" shape-rendering="optimizeSpeed" width="6" height="6"/>
<rect x="25" y="145" shape-rendering="optimizeSpeed" width="6" height="6"/>
<rect x="31" y="145" shape-rendering="optimizeSpeed" width="6" height="6"/>
<rect x="37" y="145" shape-rendering="optimizeSpeed" width="6" height="6"/>
<rect x="43" y="145" shape-rendering="optimizeSpeed" width="6" height="6"/>
<rect x="49" y="145" shape-rendering="optimizeSpeed" width="6" height="6"/>
<rect x="61" y="145" shape-rendering="optimizeSpeed" width="6" height="6"/>
<rect x="73" y="145" shape-rendering="optimizeSpeed" width="6" height="6"/>
<rect x="91" y="145" shape-rendering="optimizeSpeed" width="6" height="6"/>
<rect x="97" y="145" shape-rendering="optimizeSpeed" width="6" height="6"/>
<rect x="103" y="145" shape-rendering="optimizeSpeed" width="6" height="6"/>
<rect x="127" y="145" shape-rendering="optimizeSpeed" width="6" height="6"/>
<rect x="133" y="145" shape-rendering="optimizeSpeed" width="6" height="6"/>
<rect x="145" y="145" shape-rendering="optimizeSpeed" width="6" height="6"/>
<rect x="157" y="145" shape-rendering="optimizeSpeed" width="6" height="6"/>
<rect x="163" y="145" shape-rendering="optimizeSpeed" width="6" height="6"/>
<rect x="169" y="145" shape-rendering="optimizeSpeed" width="6" height="6"/>
<rect x="13" y="151" shape-rendering="optimizeSpeed" width="6" height="6"/>
<rect x="49" y="151" shape-rendering="optimizeSpeed" width="6" height="6"/>
<rect x="67" y="151" shape-rendering="optimizeSpeed" width="6" height="6"/>
<rect x="85" y="151" shape-rendering="optimizeSpeed" width="6" height="6"/>
<rect x="91" y="151" shape-rendering="optimizeSpeed" width="6" height="6"/>
<rect x="109" y="151" shape-rendering="optimizeSpeed" width="6" height="6"/>
<rect x="121" y="151" shape-rendering="optimizeSpeed" width="6" height="6"/>
<rect x="127" y="151" shape-rendering="optimizeSpeed" width="6" height="6"/>
<rect x="133" y="151" shape-rendering="optimizeSpeed" width="6" height="6"/>
<rect x="157" y="151" shape-rendering="optimizeSpeed" width="6" height="6"/>
<rect x="181" y="151" shape-rendering="optimizeSpeed" width="6" height="6"/>
<rect x="13" y="157" shape-rendering="optimizeSpeed" width="6" height="6"/>
<rect x="25" y="157" shape-rendering="optimizeSpeed" width="6" height="6"/>
<rect x="31" y="157" shape-rendering="optimizeSpeed" width="6" height="6"/>
<rect x="37" y="157" shape-rendering="optimizeSpeed" width="6" height="6"/>
<rect x="49" y="157" shape-rendering="optimizeSpeed" width="6" height="6"/>
<rect x="61" y="157" shape-rendering="optimizeSpeed" width="6" height="6"/>
<rect x="85" y="157" shape-rendering="optimizeSpeed" width="6" height="6"/>
<rect x="97" y="157" shape-rendering="optimizeSpeed" width="6" height="6"/>
<rect x="115" y="157" shape-rendering="optimizeSpeed" width="6" height="6"/>
<rect x="133" y="157" shape-rendering="optimizeSpeed" width="6" height="6"/>
<rect x="139" y="157" shape-rendering="optimizeSpeed" width="6" height="6"/>
<rect x="145" y="157" shape-rendering="optimizeSpeed" width="6" height="6"/>
<rect x="151" y="157" shape-rendering="optimizeSpeed" width="6" height="6"/>
<rect x="157" y="157" shape-rendering="optimizeSpeed" width="6" height="6"/>
<rect x="169" y="157" shape-rendering="optimizeSpeed" width="6" height="6"/>
<rect x="175" y="157" shape-rendering="optimizeSpeed" width="6" height="6"/>
<rect x="13" y="163" shape-rendering="optimizeSpeed" width="6" height="6"/>
<rect x="25" y="163" shape-rendering="optimizeSpeed" width="6" height="6"/>
<rect x="31" y="163" shape-rendering="optimizeSpeed" width="6" height="6"/>
<rect x="37" y="163" shape-rendering="optimizeSpeed" width="6" height="6"/>
<rect x="49" y="163" shape-rendering="optimizeSpeed" width="6" height="6"/>
<rect x="61" y="163" shape-rendering="optimizeSpeed" width="6" height="6"/>
<rect x="67" y="163" shape-rendering="optimizeSpeed" width="6" height="6"/>
<rect x="109" y="163" shape-rendering="optimizeSpeed" width="6" height="6"/>
<rect x="115" y="163" shape-rendering="optimizeSpeed" width="6" height="6"/>
<rect x="121" y="163" shape-rendering="optimizeSpeed" width="6" height="6"/>
<rect x="133" y="163" shape-rendering="optimizeSpeed" width="6" height="6"/>
<rect x="163" y="163" shape-rendering="optimizeSpeed" width="6" height="6"/>
<rect x="169" y="163" shape-rendering="optimizeSpeed" width="6" height="6"/>
<rect x="175" y="163" shape-rendering="optimizeSpeed" width="6" height="6"/>
<rect x="181" y="163" shape-rendering="optimizeSpeed" width="6" height="6"/>
<rect x="13" y="169" shape-rendering="optimizeSpeed" width="6" height="6"/>
<rect x="25" y="169" shape-rendering="optimizeSpeed" width="6" height="6"/>
<rect x="31" y="169" shape-rendering="optimizeSpeed" width="6" height="6"/>
<rect x="37" y="169" shape-rendering="optimizeSpeed" width="6" height="6"/>
<rect x="49" y="169" shape-rendering="optimizeSpeed" width="6" height="6"/>
<rect x="61" y="169" shape-rendering="optimizeSpeed" width="6" height="6"/>
<rect x="73" y="169" shape-rendering="optimizeSpeed" width="6" height="6"/>
<rect x="79" y="169" shape-rendering="optimizeSpeed" width="6" height="6"/>
<rect x="85" y="169" shape-rendering="optimizeSpeed" width="6" height="6"/>
<rect x="103" y="169" shape-rendering="optimizeSpeed" width="6" height="6"/>
<rect x="109" y="169" shape-rendering="optimizeSpeed" width="6" height="6"/>
<rect x="115" y="169" shape-rendering="optimizeSpeed" width="6" height="6"/>
<rect x="127" y="169" shape-rendering="optimizeSpeed" width="6" height="6"/>
<rect x="133" y="169" shape-rendering="optimizeSpeed" width="6" height="6"/>
<rect x="145" y="169" shape-rendering="optimizeSpeed" width="6" height="6"/>
<rect x="151" y="169" shape-rendering="optimizeSpeed" width="6" height="6"/>
<rect x="157" y="169" shape-rendering="optimizeSpeed" width="6" height="6"/>
<rect x="163" y="169" shape-rendering="optimizeSpeed" width="6" height="6"/>
<rect x="169" y="169" shape-rendering="optimizeSpeed" width="6" height="6"/>
<rect x="175" y="169" shape-rendering="optimizeSpeed" width="6" height="6"/>
<rect x="13" y="175" shape-rendering="optimizeSpeed" width="6" height="6"/>
<rect x="49" y="175" shape-rendering="optimizeSpeed" width="6" height="6"/>
<rect x="61" y="175" shape-rendering="optimizeSpeed" width="6" height="6"/>
<rect x="67" y="175" shape-rendering="optimizeSpeed" width="6" height="6"/>
<rect x="79" y="175" shape-rendering="optimizeSpeed" width="6" height="6"/>
<rect x="97" y="175" shape-rendering="optimizeSpeed" width="6" height="6"/>
<rect x="109" y="175" shape-rendering="optimizeSpeed" width="6" height="6"/>
<rect x="133" y="175" shape-rendering="optimizeSpeed" width="6" height="6"/>
<rect x="139" y="175" shape-rendering="optimizeSpeed" width="6" height="6"/>
<rect x="157" y="175" shape-rendering="optimizeSpeed" width="6" height="6"/>
<rect x="163" y="175" shape-rendering="optimizeSpeed" width="6" height="6"/>
<rect x="175" y="175" shape-rendering="optimizeSpeed" width="6" height="6"/>
<rect x="13" y="181" shape-rendering="optimizeSpeed" width="6" height="6"/>
<rect x="19" y="181" shape-rendering="optimizeSpeed" width="6" height="6"/>
<rect x="25" y="181" shape-rendering="optimizeSpeed" width="6" height="6"/>
<rect x="31" y="181" shape-rendering="optimizeSpeed" width="6" height="6"/>
<rect x="37" y="181" shape-rendering="optimizeSpeed" width="6" height="6"/>
<rect x="43" y="181" shape-rendering="optimizeSpeed" width="6" height="6"/>
<rect x="49" y="181" shape-rendering="optimizeSpeed" width="6" height="6"/>
<rect x="61" y="181" shape-rendering="optimizeSpeed" width="6" height="6"/>
<rect x="79" y="181" shape-rendering="optimizeSpeed" width="6" height="6"/>
<rect x="103" y="181" shape-rendering="optimizeSpeed" width="6" height="6"/>
<rect x="109" y="181" shape-rendering="optimizeSpeed" width="6" height="6"/>
<rect x="115" y="181" shape-rendering="optimizeSpeed" width="6" height="6"/>
<rect x="139" y="181" shape-rendering="optimizeSpeed" width="6" height="6"/>
<rect x="151" y="181" shape-rendering="optimizeSpeed" width="6" height="6"/>
<rect x="169" y="181" shape-rendering="optimizeSpeed" width="6" height="6"/>
</svg>
