<svg width="135" height="40" viewBox="0 0 135 40" fill="none" xmlns="http://www.w3.org/2000/svg">
<path d="M130 40H5C2.25 40 0 37.75 0 35V5C0 2.25 2.25 0 5 0H130C132.75 0 135 2.25 135 5V35C135 37.75 132.75 40 130 40Z" fill="black"/>
<path d="M130 0.8C132.32 0.8 134.2 2.68 134.2 5V35C134.2 37.32 132.32 39.2 130 39.2H5C2.68 39.2 0.8 37.32 0.8 35V5C0.8 2.68 2.68 0.8 5 0.8H130ZM130 0H5C2.25 0 0 2.25 0 5V35C0 37.75 2.25 40 5 40H130C132.75 40 135 37.75 135 35V5C135 2.25 132.75 0 130 0Z" fill="#A6A6A6"/>
<path d="M68.1395 21.7503C65.7895 21.7503 63.8695 23.5403 63.8695 26.0003C63.8695 28.4503 65.7895 30.2503 68.1395 30.2503C70.4895 30.2503 72.4095 28.4503 72.4095 26.0003C72.4095 23.5403 70.4895 21.7503 68.1395 21.7503ZM68.1395 28.5803C66.8495 28.5803 65.7395 27.5203 65.7395 26.0003C65.7395 24.4703 66.8495 23.4203 68.1395 23.4203C69.4295 23.4203 70.5395 24.4703 70.5395 26.0003C70.5395 27.5203 69.4195 28.5803 68.1395 28.5803ZM58.8195 21.7503C56.4695 21.7503 54.5495 23.5403 54.5495 26.0003C54.5495 28.4503 56.4695 30.2503 58.8195 30.2503C61.1695 30.2503 63.0895 28.4503 63.0895 26.0003C63.0895 23.5403 61.1695 21.7503 58.8195 21.7503ZM58.8195 28.5803C57.5295 28.5803 56.4195 27.5203 56.4195 26.0003C56.4195 24.4703 57.5295 23.4203 58.8195 23.4203C60.1095 23.4203 61.2195 24.4703 61.2195 26.0003C61.2195 27.5203 60.1095 28.5803 58.8195 28.5803ZM47.7395 23.0603V24.8603H52.0595C51.9295 25.8703 51.5895 26.6203 51.0795 27.1303C50.4495 27.7603 49.4695 28.4503 47.7495 28.4503C45.0895 28.4503 43.0095 26.3103 43.0095 23.6503C43.0095 20.9903 45.0895 18.8503 47.7495 18.8503C49.1795 18.8503 50.2295 19.4103 50.9995 20.1403L52.2695 18.8703C51.1895 17.8403 49.7595 17.0503 47.7395 17.0503C44.0995 17.0503 41.0395 20.0103 41.0395 23.6603C41.0395 27.3003 44.0995 30.2703 47.7395 30.2703C49.7095 30.2703 51.1895 29.6303 52.3495 28.4203C53.5395 27.2303 53.9095 25.5503 53.9095 24.2003C53.9095 23.7803 53.8795 23.3903 53.8095 23.0703H47.7395V23.0603ZM93.0495 24.4603C92.6995 23.5103 91.6195 21.7503 89.4095 21.7503C87.2195 21.7503 85.3995 23.4703 85.3995 26.0003C85.3995 28.3803 87.1995 30.2503 89.6195 30.2503C91.5695 30.2503 92.6995 29.0603 93.1595 28.3703L91.7095 27.4003C91.2295 28.1103 90.5695 28.5803 89.6195 28.5803C88.6695 28.5803 87.9895 28.1403 87.5595 27.2903L93.2495 24.9403L93.0495 24.4603ZM87.2495 25.8803C87.1995 24.2403 88.5195 23.4003 89.4695 23.4003C90.2095 23.4003 90.8395 23.7703 91.0495 24.3003L87.2495 25.8803ZM82.6295 30.0003H84.4995V17.5003H82.6295V30.0003ZM79.5695 22.7003H79.4995C79.0795 22.2003 78.2795 21.7503 77.2595 21.7503C75.1295 21.7503 73.1795 23.6203 73.1795 26.0203C73.1795 28.4003 75.1295 30.2603 77.2595 30.2603C78.2695 30.2603 79.0795 29.8103 79.4995 29.2903H79.5595V29.9003C79.5595 31.5303 78.6895 32.4003 77.2895 32.4003C76.1495 32.4003 75.4395 31.5803 75.1495 30.8903L73.5195 31.5703C73.9895 32.7003 75.2295 34.0803 77.2895 34.0803C79.4795 34.0803 81.3295 32.7903 81.3295 29.6503V22.0103H79.5595V22.7003H79.5695ZM77.4195 28.5803C76.1295 28.5803 75.0495 27.5003 75.0495 26.0203C75.0495 24.5203 76.1295 23.4303 77.4195 23.4303C78.6895 23.4303 79.6895 24.5303 79.6895 26.0203C79.6995 27.5003 78.6995 28.5803 77.4195 28.5803ZM101.809 17.5003H97.3395V30.0003H99.2095V25.2603H101.819C103.889 25.2603 105.919 23.7603 105.919 21.3803C105.919 19.0003 103.869 17.5003 101.809 17.5003ZM101.849 23.5203H99.1995V19.2303H101.849C103.249 19.2303 104.039 20.3903 104.039 21.3703C104.039 22.3503 103.249 23.5203 101.849 23.5203ZM113.389 21.7303C112.039 21.7303 110.639 22.3303 110.059 23.6403L111.719 24.3303C112.069 23.6403 112.729 23.4103 113.419 23.4103C114.379 23.4103 115.369 23.9903 115.379 25.0203V25.1503C115.039 24.9603 114.319 24.6703 113.429 24.6703C111.639 24.6703 109.829 25.6503 109.829 27.4803C109.829 29.1503 111.289 30.2303 112.929 30.2303C114.179 30.2303 114.879 29.6703 115.309 29.0103H115.369V29.9803H117.169V25.1903C117.179 22.9703 115.519 21.7303 113.389 21.7303ZM113.159 28.5803C112.549 28.5803 111.699 28.2703 111.699 27.5203C111.699 26.5603 112.759 26.1903 113.679 26.1903C114.499 26.1903 114.889 26.3703 115.379 26.6103C115.239 27.7603 114.239 28.5803 113.159 28.5803ZM123.739 22.0003L121.599 27.4203H121.539L119.319 22.0003H117.309L120.639 29.5803L118.739 33.7903H120.689L125.819 22.0003H123.739ZM106.939 30.0003H108.809V17.5003H106.939V30.0003Z" fill="white"/>
<path d="M10.4405 7.54009C10.1505 7.85009 9.98047 8.33009 9.98047 8.94009V31.0601C9.98047 31.6801 10.1505 32.1601 10.4405 32.4601L10.5105 32.5301L22.9005 20.1501V20.0001V19.8501L10.5105 7.47009L10.4405 7.54009Z" fill="url(#paint0_linear_3953_2768)"/>
<path d="M27.0293 24.28L22.8993 20.15V20V19.85L27.0293 15.72L27.1193 15.77L32.0093 18.55C33.4093 19.34 33.4093 20.64 32.0093 21.44L27.1193 24.22L27.0293 24.28Z" fill="url(#paint1_linear_3953_2768)"/>
<path d="M27.1206 24.22L22.9006 20L10.4406 32.46C10.9006 32.95 11.6606 33.01 12.5206 32.52L27.1206 24.22Z" fill="url(#paint2_linear_3953_2768)"/>
<path d="M27.1196 15.7802L12.5096 7.48023C11.6496 6.99023 10.8896 7.05023 10.4296 7.54023L22.8996 20.0002L27.1196 15.7802Z" fill="url(#paint3_linear_3953_2768)"/>
<path opacity="0.2" d="M27.0305 24.1302L12.5105 32.3803C11.7005 32.8403 10.9705 32.8103 10.5105 32.3903L10.4405 32.4602L10.5105 32.5303C10.9805 32.9503 11.7005 32.9803 12.5105 32.5203L27.1205 24.2202L27.0305 24.1302Z" fill="black"/>
<path opacity="0.12" d="M10.4405 32.32C10.1505 32.01 9.98047 31.53 9.98047 30.92V31.07C9.98047 31.69 10.1505 32.17 10.4405 32.47L10.5105 32.4L10.4405 32.32Z" fill="black"/>
<path opacity="0.12" d="M32.0104 21.3L27.0204 24.13L27.1104 24.22L32.0004 21.44C32.7004 21.04 33.0504 20.52 33.0504 20C33.0004 20.47 32.6504 20.94 32.0104 21.3Z" fill="black"/>
<path opacity="0.25" d="M12.5096 7.62018L32.0096 18.7002C32.6396 19.0602 32.9996 19.5202 33.0596 20.0002C33.0596 19.4802 32.7096 18.9502 32.0096 18.5602L12.5096 7.48018C11.1096 6.69018 9.9696 7.35018 9.9696 8.95018V9.10018C9.9696 7.49018 11.1196 6.83018 12.5096 7.62018Z" fill="white"/>
<path d="M43.6891 12.9998H42.9191V7.73976H41.2391V6.99976H45.3591V7.73976H43.6791V12.9998H43.6891Z" fill="white" stroke="white" stroke-width="0.2"/>
<path d="M49.839 7.73976H47.109V9.63976H49.569V10.3598H47.109V12.2598H49.839V12.9998H46.339V6.99976H49.839V7.73976Z" fill="white" stroke="white" stroke-width="0.2"/>
<path d="M51.0482 12.9998V6.99976H51.8182L53.9082 10.6498H53.9382L56.0182 6.99976H56.7882V12.9998H56.0182V9.43976L56.0482 8.42976H56.0182L54.1382 11.7198H53.6882L51.8082 8.42976H51.7782L51.8082 9.43976V12.9998H51.0482Z" fill="white" stroke="white" stroke-width="0.2"/>
<path d="M60.2595 13.1298C59.5995 13.1298 59.0695 12.9098 58.6495 12.4798C58.2395 12.0398 58.0295 11.4698 58.0295 10.7698V6.99976H58.7995V10.7998C58.7995 11.2698 58.9195 11.6598 59.1695 11.9498C59.4195 12.2398 59.7795 12.3898 60.2495 12.3898C60.7195 12.3898 61.0795 12.2398 61.3295 11.9498C61.5795 11.6598 61.6995 11.2698 61.6995 10.7998V6.99976H62.4695V10.7698C62.4695 11.4798 62.2695 12.0498 61.8695 12.4798C61.4795 12.9198 60.9395 13.1298 60.2595 13.1298Z" fill="white" stroke="white" stroke-width="0.2"/>
<path d="M68.1596 6.99976V7.02976L65.9296 9.59976L68.3096 12.9598V12.9998H67.3596L65.4096 10.1998L64.4896 11.2598V12.9998H63.7196V6.99976H64.4896V10.0898H64.5196L67.1596 6.99976H68.1596Z" fill="white" stroke="white" stroke-width="0.2"/>
<path d="M68.5894 12.9998L70.8494 6.99976H71.7194L73.9794 12.9998H73.1294L72.5494 11.3698H70.0294L69.4494 12.9998H68.5894ZM70.2894 10.6498H72.2794L71.2994 7.93976H71.2694L70.2894 10.6498Z" fill="white" stroke="white" stroke-width="0.2"/>
<path d="M74.8589 12.9998V6.99976H75.7989L78.7189 11.6698H78.7489L78.7189 10.5098V6.99976H79.4889V12.9998H78.6889L75.6389 8.10976H75.5989L75.6289 9.26976V12.9998H74.8589Z" fill="white" stroke="white" stroke-width="0.2"/>
<path d="M82.8689 12.9998V6.99976H84.6989C85.6189 6.99976 86.3589 7.27976 86.9089 7.82976C87.4589 8.38976 87.7389 9.10976 87.7389 9.99976C87.7389 10.8898 87.4589 11.6098 86.9089 12.1698C86.3689 12.7198 85.6289 12.9998 84.7089 12.9998H82.8689ZM83.6389 12.2598H84.6989C85.3889 12.2598 85.9389 12.0598 86.3489 11.6598C86.7589 11.2598 86.9589 10.7098 86.9589 9.98976C86.9589 9.27976 86.7589 8.72976 86.3489 8.32976C85.9389 7.92976 85.3989 7.72976 84.6989 7.72976H83.6389V12.2598Z" fill="white" stroke="white" stroke-width="0.2"/>
<path d="M88.8281 12.9998V6.99976H89.5981V12.9998H88.8281Z" fill="white" stroke="white" stroke-width="0.2"/>
<defs>
<linearGradient id="paint0_linear_3953_2768" x1="21.8002" y1="8.70979" x2="1.95876" y2="13.9837" gradientUnits="userSpaceOnUse">
<stop stop-color="#00A0FF"/>
<stop offset="0.00657445" stop-color="#00A1FF"/>
<stop offset="0.2601" stop-color="#00BEFF"/>
<stop offset="0.5122" stop-color="#00D2FF"/>
<stop offset="0.7604" stop-color="#00DFFF"/>
<stop offset="1" stop-color="#00E3FF"/>
</linearGradient>
<linearGradient id="paint1_linear_3953_2768" x1="33.8337" y1="20.0014" x2="9.63679" y2="20.0014" gradientUnits="userSpaceOnUse">
<stop stop-color="#FFE000"/>
<stop offset="0.4087" stop-color="#FFBD00"/>
<stop offset="0.7754" stop-color="#FFA500"/>
<stop offset="1" stop-color="#FF9C00"/>
</linearGradient>
<linearGradient id="paint2_linear_3953_2768" x1="24.8276" y1="22.2961" x2="8.89215" y2="49.1093" gradientUnits="userSpaceOnUse">
<stop stop-color="#FF3A44"/>
<stop offset="1" stop-color="#C31162"/>
</linearGradient>
<linearGradient id="paint3_linear_3953_2768" x1="7.29693" y1="0.176432" x2="14.4056" y2="12.1518" gradientUnits="userSpaceOnUse">
<stop stop-color="#32A071"/>
<stop offset="0.0685" stop-color="#2DA771"/>
<stop offset="0.4762" stop-color="#15CF74"/>
<stop offset="0.8009" stop-color="#06E775"/>
<stop offset="1" stop-color="#00F076"/>
</linearGradient>
</defs>
</svg>
