<svg width="24" height="24" viewBox="0 0 24 24" fill="none" xmlns="http://www.w3.org/2000/svg">
<path d="M14.8294 3.00537H12.0219V5.77436H14.8294V3.00537Z" fill="#CED4DA"/>
<path d="M17.637 5.77283H14.8295V8.54182H17.637V5.77283Z" fill="#CED4DA"/>
<path fill-rule="evenodd" clip-rule="evenodd" d="M4.99998 21C4.99998 17.939 7.51535 15.4581 10.619 15.4581H13.381C16.4846 15.4581 19 17.939 19 21H16.183C16.183 19.4734 14.9289 18.2364 13.381 18.2364H10.619C9.07111 18.2364 7.81693 19.4734 7.81693 21H4.99998Z" fill="#868E96"/>
<path fill-rule="evenodd" clip-rule="evenodd" d="M12.022 5.77828C10.4741 5.77828 9.21992 7.01523 9.21992 8.54185C9.21992 10.0685 10.4741 11.3054 12.022 11.3054C13.5698 11.3054 14.824 10.0685 14.824 8.54185H17.6409C17.6409 11.6029 15.1256 14.0837 12.022 14.0837C8.91833 14.0837 6.40297 11.6029 6.40297 8.54185C6.40297 5.48083 8.91833 3 12.022 3V5.77828Z" fill="#868E96"/>
</svg>
