<svg width="24" height="24" viewBox="0 0 24 24" fill="none" xmlns="http://www.w3.org/2000/svg">
<path d="M14.3336 2H11.6666V4.66696H14.3336V2Z" fill="#36B98C"/>
<path d="M7.66693 4.71472H4.99997V7.38169H7.66693V4.71472Z" fill="#36B98C"/>
<path d="M21.0003 4.71472H18.3334V7.38169H21.0003V4.71472Z" fill="#36B98C"/>
<path d="M14.3336 19.333H11.6666V22H14.3336V19.333Z" fill="#36B98C"/>
<path fill-rule="evenodd" clip-rule="evenodd" d="M12.9994 8.67335C10.7938 8.67335 9.00489 10.4613 9.00489 12.6678C9.00489 14.1432 9.80517 15.4348 11.0029 16.1283L11.6704 16.5149V19.333H8.99445V18.002C7.37781 16.786 6.32898 14.8496 6.32898 12.6678C6.32898 8.98292 9.31644 5.99744 12.9994 5.99744C16.6826 5.99744 19.6698 8.98465 19.6698 12.6678C19.6698 14.8503 18.6214 16.7872 17.0043 18.0024V19.333H14.3284V16.5142L14.9967 16.1279C16.1933 15.4361 16.9939 14.145 16.9939 12.6678C16.9939 10.4625 15.2047 8.67335 12.9994 8.67335Z" fill="black"/>
</svg>
